<svg width="49" height="47" viewBox="0 0 49 47" fill="none" xmlns="http://www.w3.org/2000/svg">
<path fill-rule="evenodd" clip-rule="evenodd" d="M29.75 5.8862V0.478699C40.2763 2.8674 48.125 12.2649 48.125 23.5C48.125 34.735 40.2763 44.1325 29.75 46.5212V41.1137C37.3363 38.8562 42.875 31.8212 42.875 23.5C42.875 15.1787 37.3363 8.1437 29.75 5.8862ZM0.875 31.375V15.625H11.375L24.5 2.5V44.5L11.375 31.375H0.875ZM19.25 31.8211V15.1786L13.5538 20.8749H6.125V26.1249H13.5538L19.25 31.8211ZM36.3125 23.4999C36.3125 18.8537 33.635 14.8637 29.75 12.9212V34.0524C33.635 32.1362 36.3125 28.1462 36.3125 23.4999Z" fill="#22232A" fill-opacity="0.8"/>
</svg>
