<svg width="26" height="18" viewBox="0 0 26 18" fill="none" xmlns="http://www.w3.org/2000/svg">
<path fill-rule="evenodd" clip-rule="evenodd" d="M23 0.25H3C1.625 0.25 0.5125 1.375 0.5125 2.75L0.5 15.25C0.5 16.625 1.625 17.75 3 17.75H23C24.375 17.75 25.5 16.625 25.5 15.25V2.75C25.5 1.375 24.375 0.25 23 0.25ZM23 2.75002V15.25H3V2.75002H23ZM14.25 3.99998H11.75V6.49998H14.25V3.99998ZM11.75 7.74998H14.25V10.25H11.75V7.74998ZM10.5 3.99998H8V6.49998H10.5V3.99998ZM8 7.74998H10.5V10.25H8V7.74998ZM6.75 7.74998H4.25V10.25H6.75V7.74998ZM4.25 3.99998H6.75V6.49998H4.25V3.99998ZM18 11.5H8V14H18V11.5ZM15.5 7.74998H18V10.25H15.5V7.74998ZM18 3.99998H15.5V6.49998H18V3.99998ZM19.25 7.74998H21.75V10.25H19.25V7.74998ZM21.75 3.99998H19.25V6.49998H21.75V3.99998Z" fill="black" fill-opacity="0.54"/>
</svg>
