<svg width="30" height="30" viewBox="0 0 30 30" fill="none" xmlns="http://www.w3.org/2000/svg">
<g id="keyboard">
<path id="icon/hardware/keyboard_24px" fill-rule="evenodd" clip-rule="evenodd" d="M25 6.25H5C3.625 6.25 2.5125 7.375 2.5125 8.75L2.5 21.25C2.5 22.625 3.625 23.75 5 23.75H25C26.375 23.75 27.5 22.625 27.5 21.25V8.75C27.5 7.375 26.375 6.25 25 6.25ZM25 8.75002V21.25H5V8.75002H25ZM16.25 9.99998H13.75V12.5H16.25V9.99998ZM13.75 13.75H16.25V16.25H13.75V13.75ZM12.5 9.99998H10V12.5H12.5V9.99998ZM10 13.75H12.5V16.25H10V13.75ZM8.75 13.75H6.25V16.25H8.75V13.75ZM6.25 9.99998H8.75V12.5H6.25V9.99998ZM20 17.5H10V20H20V17.5ZM17.5 13.75H20V16.25H17.5V13.75ZM20 9.99998H17.5V12.5H20V9.99998ZM21.25 13.75H23.75V16.25H21.25V13.75ZM23.75 9.99998H21.25V12.5H23.75V9.99998Z" fill="black" fill-opacity="0.54"/>
</g>
</svg>
