<svg width="63" height="63" viewBox="0 0 63 63" fill="none" xmlns="http://www.w3.org/2000/svg">
<g id="mute">
<path id="icon/av/volume_off_24px" fill-rule="evenodd" clip-rule="evenodd" d="M11.3925 7.70438L7.69125 11.4056L19.1363 22.8506L18.375 23.6381H7.875V39.3881H18.375L31.5 52.5131V35.2144L42.4725 46.1869C40.7663 47.4731 38.85 48.4969 36.75 49.1006V54.5081C40.2675 53.7206 43.4963 52.0931 46.2262 49.9144L51.6075 55.2956L55.3088 51.5944L11.3925 7.70438ZM26.25 39.8344L20.5537 34.1381H13.125V28.8881H20.5537L22.8637 26.5781L26.25 29.9644V39.8344ZM48.7988 37.6556C49.4813 35.7394 49.875 33.6656 49.875 31.5131C49.875 23.1919 44.3363 16.1569 36.75 13.8994V8.49186C47.2762 10.8806 55.125 20.2781 55.125 31.5131C55.125 35.1619 54.285 38.6006 52.815 41.6719L48.7988 37.6556ZM31.5 10.5131L26.565 15.4481L31.5 20.3831V10.5131ZM36.75 20.9344C40.635 22.8769 43.3125 26.8669 43.3125 31.5131C43.3125 31.7231 43.2863 31.9331 43.26 32.1431L36.75 25.6331V20.9344Z" fill="#22232A" fill-opacity="0.8"/>
</g>
</svg>
