<svg xmlns="http://www.w3.org/2000/svg" viewBox="0 0 47.62 47.59"><defs><style>.cls-1{fill:#22232a;fill-opacity:0.8;fill-rule:evenodd;}</style></defs><title>mutedAsset 1</title><g id="Layer_2" data-name="Layer 2"><g id="Layer_1-2" data-name="Layer 1"><g id="mute"><path class="cls-1" d="M3.7,0,0,3.7,11.45,15.15l-.77.78H.18V31.68h10.5L23.81,44.81V27.51l11,11a17.6,17.6,0,0,1-5.72,2.92v5.4a23.25,23.25,0,0,0,9.47-4.59l5.39,5.38,3.7-3.7ZM18.56,32.13l-5.7-5.7H5.43V21.18h7.43l2.31-2.31,3.39,3.39ZM41.11,30a18.34,18.34,0,0,0-12-23.75V.79A23.58,23.58,0,0,1,45.12,34ZM23.81,2.81,18.87,7.74l4.94,4.94Zm5.25,10.42a11.81,11.81,0,0,1,6.56,10.58,4.46,4.46,0,0,1,0,.63l-6.51-6.51Z"/></g></g></g></svg>